<svg xmlns="http://www.w3.org/2000/svg" xmlns:xlink="http://www.w3.org/1999/xlink" viewBox="70 70 870 840">
<defs>
  <linearGradient id="glyph" x1="0" y1="0" x2="1" y2="1">
    <stop offset="0" stop-color="#A78BFA"/>
    <stop offset="1" stop-color="#7C3AED"/>
  </linearGradient>
  <linearGradient id="linearGradient20" xlink:href="#glyph"
    x1="281.33" y1="181.2" x2="734.32" y2="634.19"
    gradientTransform="scale(0.83887,1.19208)" gradientUnits="userSpaceOnUse"/>
  <linearGradient id="linearGradient53">
    <stop offset="0" style="stop-color:#bf8041;stop-opacity:1"/>
    <stop offset="1" style="stop-color:#f59e0b;stop-opacity:0"/>
  </linearGradient>
  <linearGradient id="linearGradient54" xlink:href="#linearGradient53"
    x1="777.09" y1="190.56" x2="841.09" y2="190.56"
    gradientUnits="userSpaceOnUse" spreadMethod="reflect"/>
  <linearGradient id="linearGradient40">
    <stop offset="0" style="stop-color:#000;stop-opacity:0.379"/>
    <stop offset="1" style="stop-color:#000;stop-opacity:0"/>
  </linearGradient>
  <linearGradient id="linearGradient41" xlink:href="#linearGradient40"
    x1="510.1" y1="-538.13" x2="709.92" y2="-422.76"
    gradientUnits="userSpaceOnUse" spreadMethod="reflect"/>
  <linearGradient id="linearGradient43">
    <stop offset="0" style="stop-color:#f5de0b;stop-opacity:1"/>
    <stop offset="1" style="stop-color:#f5de0b;stop-opacity:0"/>
  </linearGradient>
  <linearGradient id="linearGradient44" xlink:href="#linearGradient43"
    x1="494.65" y1="-480.44" x2="725.38" y2="-480.44"
    gradientUnits="userSpaceOnUse"/>
</defs>
<!-- lens handle -->
<line x1="756.39" y1="756.39" x2="881.05" y2="882.49"
  stroke="#8b7bc4" stroke-opacity="0.5" stroke-width="48" stroke-linecap="round"/>
<!-- filmstrip -->
<rect x="296" y="216" width="380" height="540" rx="56" fill="url(#glyph)"
  style="fill:url(#linearGradient20)"/>
<rect x="368" y="262" width="236" height="190" rx="36" fill="#101018"/>
<rect x="368" y="520" width="236" height="190" rx="36" fill="#101018"/>
<!-- sprocket holes -->
<circle cx="332" cy="290" r="26" fill="#101018"/>
<circle cx="332" cy="390" r="26" fill="#101018"/>
<circle cx="332" cy="490" r="26" fill="#101018"/>
<circle cx="332" cy="590" r="26" fill="#101018"/>
<circle cx="332" cy="690" r="26" fill="#101018"/>
<circle cx="640" cy="290" r="26" fill="#101018"/>
<circle cx="640" cy="390" r="26" fill="#101018"/>
<circle cx="640" cy="490" r="26" fill="#101018"/>
<circle cx="640" cy="590" r="26" fill="#101018"/>
<circle cx="640" cy="690" r="26" fill="#101018"/>
<!-- K connection dots -->
<circle cx="445" cy="372" r="34" fill="#f5de0b"/>
<circle cx="527" cy="600" r="34" fill="#f5de0b"/>
<!-- K connection lines -->
<line x1="445" y1="372" x2="527" y2="600"
  stroke="#f5df0b" stroke-width="24" stroke-linecap="round"/>
<line x1="585.54" y1="297.33" x2="860.58" y2="359.08"
  stroke="#f5de0b" stroke-width="19.47" stroke-linecap="round"
  style="opacity:0.9"/>
<line x1="493.45" y1="476.25" x2="562.79" y2="294.76"
  stroke="#f5de0b" stroke-width="17.83" stroke-linecap="round"/>
<line x1="562.21" y1="-433.71" x2="899.84" y2="-518.55"
  stroke="#f5de0b" stroke-width="18.81" stroke-linecap="round"
  style="opacity:0.81" transform="translate(3.375,1022.375)"/>
<line x1="497.97" y1="483.76" x2="710.04" y2="592.89"
  stroke="#f5de0b" stroke-width="22" stroke-linecap="round"
  style="fill:url(#linearGradient41);stroke:url(#linearGradient44)"/>
<!-- K endpoint dots -->
<circle cx="204.27" cy="601.46" r="22" fill="#f5de0b" transform="rotate(-44)"/>
<circle cx="809.09" cy="190.56" r="32" fill="#f59e0b"
  transform="rotate(-44,1266.92,507.01)" style="fill:url(#linearGradient54)"/>
<circle cx="161.51" cy="-1088.26" r="26" fill="#f59e0b"
  transform="rotate(45,-1232.43,515.26)"/>
<circle cx="910.58" cy="-518.01" r="22" fill="#f59e0b"
  transform="translate(3.375,1022.375)"/>
<!-- lens circle -->
<circle cx="486" cy="486" r="372" fill="none"
  stroke="#8b7bc4" stroke-opacity="0.38" stroke-width="30"/>
</svg>
